HIERARCHY
ROOT Hips
{
  OFFSET 17.2383 39.8254 -4.08243
  CHANNELS 6 Xposition Yposition Zposition Zrotation Xrotation Yrotation
  JOINT LeftHip
  {
    OFFSET 3.43 1.42109e-014 2.88658e-015
    CHANNELS 3 Zrotation Xrotation Yrotation
    JOINT LeftKnee
    {
      OFFSET 5.32907e-014 -18.47 2.24487e-013
      CHANNELS 3 Zrotation Xrotation Yrotation
      JOINT LeftAnkle
      {
        OFFSET -2.4194e-012 -17.95 2.75779e-012
        CHANNELS 3 Zrotation Xrotation Yrotation
        End Site
        {
          OFFSET 0 -3.12 0
        }
      }
    }
  }
  JOINT RightHip
  {
    OFFSET -3.43 0 1.33227e-015
    CHANNELS 3 Zrotation Xrotation Yrotation
    JOINT RightKnee
    {
      OFFSET 1.98952e-013 -18.47 -3.55271e-014
      CHANNELS 3 Zrotation Xrotation Yrotation
      JOINT RightAnkle
      {
        OFFSET 3.48344e-012 -17.95 -4.13891e-013
        CHANNELS 3 Zrotation Xrotation Yrotation
        End Site
        {
          OFFSET 0 -3.12 0
        }
      }
    }
  }
  JOINT Chest
  {
    OFFSET 3.55271e-014 4.57 2.22045e-015
    CHANNELS 3 Zrotation Xrotation Yrotation
    JOINT Chest2
    {
      OFFSET -7.10543e-015 6.57 -4.44089e-016
      CHANNELS 3 Zrotation Xrotation Yrotation
      JOINT LeftCollar
      {
        OFFSET 1.06 4.19 1.76
        CHANNELS 3 Zrotation Xrotation Yrotation
        JOINT LeftShoulder
        {
          OFFSET 5.81 -7.10543e-014 -4.88498e-015
          CHANNELS 3 Zrotation Xrotation Yrotation
          JOINT LeftElbow
          {
            OFFSET -2.20268e-013 -12.08 8.52651e-014
            CHANNELS 3 Zrotation Xrotation Yrotation
            JOINT LeftWrist
            {
              OFFSET 3.83693e-013 -9.82 1.58096e-013
              CHANNELS 3 Zrotation Xrotation Yrotation
              End Site
              {
                OFFSET 0 -7.37 0
              }
            }
          }
        }
      }
      JOINT RightCollar
      {
        OFFSET -1.06 4.19 1.76
        CHANNELS 3 Zrotation Xrotation Yrotation
        JOINT RightShoulder
        {
          OFFSET -6.06 -3.55271e-014 -1.31006e-014
          CHANNELS 3 Zrotation Xrotation Yrotation
          JOINT RightElbow
          {
            OFFSET -5.82645e-013 -11.08 3.9968e-014
            CHANNELS 3 Zrotation Xrotation Yrotation
            JOINT RightWrist
            {
              OFFSET -1.10845e-012 -9.82 -1.72307e-013
              CHANNELS 3 Zrotation Xrotation Yrotation
              End Site
              {
                OFFSET 0 -7.14001 0
              }
            }
          }
        }
      }
      JOINT Neck
      {
        OFFSET -1.42109e-014 4.05 -5.9952e-015
        CHANNELS 3 Zrotation Xrotation Yrotation
        JOINT Head
        {
          OFFSET -6.39488e-014 5.19 -1.77636e-014
          CHANNELS 3 Zrotation Xrotation Yrotation
          End Site
          {
            OFFSET 0 4.14001 0
          }
        }
      }
    }
  }
}
MOTION
Frames:	11
Frame Time:	0.0333333
17.2383 39.8254 -4.08243 1.36855 -3.59472 0.215836 0.446416 1.21535 1.43881 1.02736 13.3563 26.8476 -4.14196 -8.49057 -0.307591 -6.42022 1.74963 -7.08777 -0.979925 10.7314 3.12383 5.36004 -7.61836 0.357135 0.0185751 0.916913 1.29545 0.163911 -1.21723 1.99908 9.39677 0.11085 2.88702 88.3825 14.6301 11.0157 -2.21574 -15.3483 -0.586748 -3.16609 6.67089 0.769237 -9.04805 0.425388 -3.95413 -91.6035 23.8785 -0.312153 2.13355 -23.2576 0.842794 -10.7895 -0.2434 6.19201 0.119632 16.0365 -0.156232 0.227219 -1.92274 -0.176662 
17.2268 39.8203 -4.07787 1.33563 -3.51164 0.234558 0.452376 1.12529 1.35875 1.12445 13.387 26.8063 -4.26844 -8.48535 -0.316797 -6.35864 1.74439 -7.04068 -1.00878 10.5724 2.96545 5.40048 -7.59191 0.358581 -0.00749097 0.846969 1.23391 0.126521 -1.32168 1.89824 9.55053 0.115204 2.89892 88.6989 14.9959 10.7343 -2.29713 -15.2135 -0.603106 -3.11013 6.40574 1.84513 -8.67969 0.407228 -3.78529 -92.2878 23.9728 0.0375814 2.31428 -23.1604 0.910639 -10.5906 -0.129611 5.63652 0.380555 16.1363 -0.490303 -0.00188298 -1.93979 -0.338512 
17.217 39.8189 -4.06147 1.3531 -3.54109 0.210517 0.424702 1.18588 1.3277 1.18096 13.5235 26.5328 -4.2299 -8.65052 -0.320067 -6.39204 1.84665 -7.10357 -0.967028 10.5042 3.09102 5.36097 -7.62989 0.35774 -0.0515987 0.88559 1.18964 0.0848384 -1.24042 1.8271 9.65445 0.122413 3.01144 88.8666 15.2726 10.5506 -2.28864 -15.1475 -0.598327 -2.84339 6.62602 2.43918 -8.81505 0.409323 -3.71383 -92.2162 24.0932 0.202191 2.35511 -23.1409 0.925983 -10.3046 -0.293616 5.77353 0.32076 15.8437 -0.358146 0.0450057 -1.74277 -0.247487 
17.198 39.8187 -4.05323 1.32927 -3.42635 0.18938 0.474934 1.07356 1.3564 1.12472 13.422 26.9322 -4.30907 -8.5212 -0.321172 -6.33367 1.75771 -7.05322 -0.983457 10.4313 2.97844 5.36573 -7.59928 0.356617 -0.0299066 0.842714 1.19774 0.0994475 -1.30224 1.84522 10.0632 0.137505 3.10928 88.4564 15.4147 11.1409 -1.81607 -14.9002 -0.467122 -3.28268 6.47661 1.2646 -8.73173 0.404354 -3.64437 -92.6442 24.441 0.592223 2.41207 -23.2762 0.953641 -9.95787 -0.147847 5.328 0.130277 15.6462 -0.237071 0.274677 -1.70821 -0.260982 
17.2028 39.8166 -4.03781 1.30903 -3.43407 0.214559 0.461632 1.07564 1.32689 1.18247 13.4592 26.9727 -4.36736 -8.53367 -0.325999 -6.33556 1.79827 -7.09041 -0.934815 10.4604 2.89761 5.35257 -7.63491 0.357414 -0.0118172 0.853024 1.18852 0.109257 -1.28696 1.82812 10.2206 0.144879 3.17706 88.604 15.5119 10.8618 -2.00219 -14.865 -0.51384 -2.74204 6.9212 2.3788 -8.57362 0.40077 -3.69085 -92.6827 24.4553 0.307201 2.29245 -23.1093 0.900161 -9.90628 0.14501 5.72616 0.14847 15.5913 -0.211068 0.175912 -1.87677 -0.203506 
17.1982 39.819 -4.01724 1.27214 -3.44094 0.198152 0.533333 1.09675 1.38048 1.17577 13.5147 26.8614 -4.34868 -8.59676 -0.327011 -6.26541 1.82388 -7.03455 -0.945888 10.4999 3.01473 5.31395 -7.66476 0.356223 0.0201939 0.830196 1.25048 0.160881 -1.3169 1.92426 10.2643 0.144493 3.14227 88.6754 15.5096 10.9999 -1.936 -14.6514 -0.489859 -2.4997 6.57763 2.3671 -8.48715 0.395456 -3.60796 -92.8759 24.748 0.465378 2.30518 -22.9671 0.899896 -9.96132 0.247461 5.49933 0.0959734 15.683 -0.25054 0.243918 -1.98839 -0.281815 
17.1903 39.8083 -4.00303 1.23045 -3.45978 0.239434 0.628575 1.15661 1.42583 1.14979 13.4292 26.7786 -4.52322 -8.55215 -0.338378 -6.20692 1.87279 -7.00403 -0.957338 10.4964 2.90208 5.33203 -7.74354 0.361121 0.0184323 0.852564 1.2281 0.147796 -1.29172 1.88504 10.5918 0.162673 3.33003 88.4792 15.4084 11.0006 -1.95515 -14.6528 -0.494755 -2.06167 6.50556 2.57161 -8.37763 0.392512 -3.6252 -92.8371 24.7418 0.362671 2.28233 -22.8078 0.88512 -9.77806 0.104082 4.92124 0.150046 15.5111 -0.046521 0.273659 -1.84072 -0.058106 
17.1905 39.8073 -3.98505 1.29165 -3.47017 0.339777 0.578648 1.16526 1.40883 1.15169 13.4772 26.716 -4.47996 -8.59697 -0.336901 -6.26969 1.90328 -7.05006 -0.94154 10.5224 2.8294 5.33357 -7.79764 0.363758 -0.0209313 0.843673 1.25885 0.11648 -1.32255 1.92495 10.63 0.161423 3.28206 88.5468 15.297 11.1461 -1.94592 -14.6796 -0.4933 -1.94667 6.54902 2.58127 -8.18506 0.385958 -3.60883 -92.9583 24.9332 0.319387 2.22156 -22.7098 0.858031 -9.41995 0.116929 4.86391 0.273522 15.4798 -0.108505 -0.0401719 -1.63025 0.00303364 
17.1787 39.8144 -3.96813 1.3119 -3.50021 0.409232 0.569603 1.21415 1.42174 1.15399 13.4592 26.6732 -4.38697 -8.59823 -0.32995 -6.23789 1.96573 -7.02287 -0.970845 10.485 2.73498 5.33405 -7.75555 0.36182 -0.026848 0.825375 1.25374 0.14487 -1.35583 1.91546 10.5068 0.155668 3.23594 88.6757 15.3442 11.2466 -1.82218 -14.7527 -0.464158 -2.50134 6.38085 0.706255 -8.32965 0.389271 -3.56601 -92.7325 24.858 0.242109 2.25952 -22.5167 0.865673 -9.68157 0.148327 4.75116 0.256784 15.5032 -0.171939 -0.137985 -1.34901 -0.0543201 
17.1903 39.8076 -3.9426 1.39732 -3.5605 0.51001 0.489234 1.25231 1.38222 1.19775 13.5333 26.5819 -4.41105 -8.6356 -0.33321 -6.34742 2.03207 -7.14323 -0.892424 10.5725 2.62136 5.29585 -7.89102 0.36552 -0.0757787 0.830748 1.23194 0.137046 -1.34105 1.87203 10.4241 0.153691 3.24364 88.7607 15.1581 11.0547 -2.07032 -14.8175 -0.529683 -1.98762 6.67627 2.16031 -8.22219 0.385326 -3.5448 -92.6738 24.8532 0.269333 2.25012 -22.6568 0.867151 -9.65426 0.068857 5.10654 0.130562 15.8253 0.0472365 0.0573033 -1.9107 0.0638325 
17.1876 39.8127 -3.94176 1.44474 -3.52571 0.595677 0.455738 1.17124 1.3787 1.15133 13.6207 26.4266 -4.25153 -8.70976 -0.323917 -6.38078 1.94036 -7.13229 -0.944707 10.7183 2.58124 5.33551 -7.91194 0.369241 -0.127652 0.867003 1.24772 0.044075 -1.33688 1.88678 10.8773 0.171239 3.33481 88.2041 14.9098 11.3859 -1.93163 -14.8866 -0.496424 -2.34581 6.31608 1.01578 -7.89702 0.378692 -3.68054 -92.7536 24.7508 0.324942 2.32665 -22.6431 0.896155 -9.73414 0.131054 4.80169 0.262593 15.658 0.134486 0.0187094 -1.9274 0.220573 
